<?xml version="1.0" encoding="utf-8"?>
<!-- Generator: Adobe Illustrator 23.0.2, SVG Export Plug-In . SVG Version: 6.00 Build 0)  -->
<svg version="1.1" id="Layer_1" xmlns="http://www.w3.org/2000/svg" xmlns:xlink="http://www.w3.org/1999/xlink" x="0px" y="0px"
	 viewBox="0 0 84 94" style="enable-background:new 0 0 84 94;" xml:space="preserve">
<style type="text/css">
	.st0{fill:none;stroke:#B4B4B4;stroke-width:3.222;stroke-miterlimit:10;}
	.st1{fill:none;stroke:#B4B4B4;stroke-width:3.222;stroke-linecap:round;stroke-miterlimit:10;}
	.st2{fill:none;stroke:#B4B4B4;stroke-width:3.222;stroke-linecap:round;stroke-linejoin:round;stroke-miterlimit:10;}
	.st3{fill:none;stroke:#B4B4B4;stroke-width:3.222;stroke-linejoin:round;stroke-miterlimit:10;}
	.st4{fill:#B4B4B4;}
</style>
<g>
	<path class="st0" d="M70.4,65.4H24.9c-3.8,0-6.8-3-6.8-6.8c0-3.8,3-6.8,6.8-6.8h45.5c1.9,0,3.4,1.5,3.4,3.4V62
		C73.8,63.9,72.3,65.4,70.4,65.4z"/>
	<path class="st1" d="M54.4,56.3v-4.6c0-3.5,2.9-6.4,6.4-6.4h4.5"/>
	<path class="st2" d="M70.2,65.4c0,0,7.1,7.3,7.1,26.1l-11.9,0c0-18.8-9.8-26.1-9.8-26.1"/>
	<path class="st2" d="M57.4,65.4c0,0-4.2,5.3-6.8,6.4"/>
	<path class="st2" d="M74.1,57h3.7c1.8,0,3.2,1.4,3.2,3.2V61c0,1.8-1.4,3.2-3.2,3.2h-4.7"/>
	<polygon class="st3" points="49.2,42.8 60.8,12 35.6,2.5 24,33.4 28.6,42.7 39.6,46.9 	"/>
	<line class="st1" x1="24" y1="33.4" x2="49.2" y2="42.8"/>
	<line class="st1" x1="28.6" y1="42.7" x2="24.9" y2="51.8"/>
	<line class="st1" x1="39.7" y1="46.9" x2="37.7" y2="51.8"/>
	<line class="st1" x1="33" y1="9.4" x2="58.3" y2="18.8"/>
	<path class="st4" d="M11.8,51.5c0,1-0.8,1.8-1.8,1.8c-1,0-1.8-0.8-1.8-1.8c0-1,0.8-1.8,1.8-1.8C11,49.7,11.8,50.5,11.8,51.5"/>
	<path class="st4" d="M4.8,49.7c0,1-0.8,1.8-1.8,1.8c-1,0-1.8-0.8-1.8-1.8c0-1,0.8-1.8,1.8-1.8C4,47.9,4.8,48.7,4.8,49.7"/>
	<path class="st4" d="M4.8,58.6c0,1-0.8,1.8-1.8,1.8c-1,0-1.8-0.8-1.8-1.8c0-1,0.8-1.8,1.8-1.8C4,56.9,4.8,57.7,4.8,58.6"/>
	<path class="st4" d="M4.8,67.6c0,1-0.8,1.8-1.8,1.8c-1,0-1.8-0.8-1.8-1.8c0-1,0.8-1.8,1.8-1.8C4,65.8,4.8,66.6,4.8,67.6"/>
	<path class="st4" d="M11.8,58.6c0,1-0.8,1.8-1.8,1.8c-1,0-1.8-0.8-1.8-1.8c0-1,0.8-1.8,1.8-1.8C11,56.9,11.8,57.7,11.8,58.6"/>
	<path class="st4" d="M11.8,65.8c0,1-0.8,1.8-1.8,1.8c-1,0-1.8-0.8-1.8-1.8c0-1,0.8-1.8,1.8-1.8C11,64,11.8,64.8,11.8,65.8"/>
</g>
</svg>
