<?xml version="1.0" encoding="utf-8"?>
<!-- Generator: Adobe Illustrator 23.0.2, SVG Export Plug-In . SVG Version: 6.00 Build 0)  -->
<svg version="1.1" id="Layer_1" xmlns="http://www.w3.org/2000/svg" xmlns:xlink="http://www.w3.org/1999/xlink" x="0px" y="0px"
	 viewBox="0 0 72 82" style="enable-background:new 0 0 72 82;" xml:space="preserve">
<style type="text/css">
	.st0{fill:#4F767B;}
	.st1{fill:#4E4E4E;}
</style>
<g>
	<path class="st0" d="M52.2,57.3l15.1,20.9c0,0,5.6-3.1,4.2-4.9c-1.4-1.8-12.4-17.3-12.4-17.3S57,53.3,52.2,57.3"/>
	<path class="st0" d="M7.5,4c0,0,3.9-5.2,5.7-3.3C15,2.6,28,17.3,28,17.3s0,1.8-0.5,2.8c-0.5,1-2.8,3.2-2.8,3.2L7.5,4z"/>
	<path class="st1" d="M4.9,10.1l14.4,16.1c-0.7,0.4-1.9,1.3-2.4,3.2c-1.1,3.9,1.3,9.6,7.2,17l2.3,3l0.6,0.7l2.4,2.9
		c5.8,7.1,10.8,10.6,14.7,10.6c2,0,3.4-0.9,4-1.7l12.7,17.5c-2.4,0.5-5,0.8-7.5,0.8c-6.9,0-17.2-2.1-27-12c0,0-4.9-5-9.2-10.3
		l-0.4-0.5c-4.3-5.4-8.1-11.2-8.1-11.2C-1.8,30.5,1.9,16.7,4.9,10.1 M4.5,7.6c-4.3,8.2-7.9,23,2.8,39.4c0,0,3.9,5.8,8.2,11.3
		l0.4,0.5c4.4,5.4,9.3,10.4,9.3,10.4c9.5,9.6,19.7,12.5,28,12.5c3.8,0,7.1-0.6,9.9-1.4L48.3,59.7c-0.7,0.6-1,1.1-1,1.1
		s-0.9,1.4-3.1,1.4c-2.6,0-6.9-1.9-13.6-10.1l-2.4-2.9l-0.6-0.7l-2.3-3C12.9,30,20.2,27.3,20.2,27.3s0.5-0.3,1.3-0.8L4.5,7.6z"/>
</g>
</svg>
