<?xml version="1.0" encoding="utf-8"?>
<!-- Generator: Adobe Illustrator 23.0.2, SVG Export Plug-In . SVG Version: 6.00 Build 0)  -->
<svg version="1.1" id="Layer_1" xmlns="http://www.w3.org/2000/svg" xmlns:xlink="http://www.w3.org/1999/xlink" x="0px" y="0px"
	 viewBox="0 0 84 84" style="enable-background:new 0 0 84 84;" xml:space="preserve">
<style type="text/css">
	.st0{fill:#4E4E4E;}
	.st1{fill:#4F767B;}
</style>
<g>
	<path class="st0" d="M2.6,38c0.1,0,0.2,0,0.4,0.1l25.1,19.2c0.2,0.2,0.2,0.4,0.2,0.5c0,0.1,0,0.3-0.2,0.5L3,77.5
		c-0.1,0.1-0.2,0.1-0.4,0.1C2.4,77.6,2,77.4,2,77V38.6C2,38.2,2.4,38,2.6,38 M2.6,36.6c-1,0-2,0.8-2,2V77c0,1.2,1,2,2,2
		c0.4,0,0.8-0.1,1.2-0.4l25.1-19.2c1.1-0.8,1.1-2.4,0-3.2L3.8,37C3.5,36.7,3,36.6,2.6,36.6"/>
	<polygon class="st1" points="71.5,9.4 12.5,9.4 12.5,38.5 42.4,61.3 71.5,38.5 	"/>
	<path class="st0" d="M81.4,38c0.2,0,0.6,0.2,0.6,0.6V77c0,0.4-0.4,0.6-0.6,0.6c-0.1,0-0.2,0-0.4-0.1L55.9,58.3
		c-0.2-0.2-0.2-0.4-0.2-0.5c0-0.1,0-0.3,0.2-0.5L81,38.1C81.1,38.1,81.3,38,81.4,38 M81.4,36.6c-0.4,0-0.8,0.1-1.2,0.4L55.1,56.2
		c-1.1,0.8-1.1,2.4,0,3.2l25.1,19.2c0.4,0.3,0.8,0.4,1.2,0.4c1,0,2-0.8,2-2V38.6C83.4,37.4,82.4,36.6,81.4,36.6"/>
	<path class="st0" d="M33.7,62.1c0.1,0,0.2,0,0.4,0.1l3.7,2.9l2,1.5c0.6,0.5,1.3,0.7,2.1,0.7c0.8,0,1.5-0.3,2.1-0.7l5.7-4.4
		c0.1-0.1,0.3-0.1,0.4-0.1c0.1,0,0.2,0,0.4,0.1l24.1,19c0.3,0.2,0.2,0.5,0.2,0.7c-0.1,0.1-0.2,0.4-0.6,0.4H43H9.9
		c-0.4,0-0.5-0.2-0.6-0.4c-0.1-0.1-0.1-0.4,0.2-0.7l23.8-19C33.5,62.1,33.7,62.1,33.7,62.1 M33.7,60.7c-0.4,0-0.9,0.1-1.3,0.4
		l-23.8,19c-1.5,1.2-0.6,3.6,1.3,3.6H43h31.1c1.9,0,2.7-2.4,1.2-3.6l-24.1-19c-0.4-0.3-0.8-0.4-1.2-0.4c-0.4,0-0.9,0.1-1.2,0.4
		l-5.7,4.4c-0.4,0.3-0.8,0.4-1.2,0.4c-0.4,0-0.9-0.1-1.2-0.4l-2-1.5L35,61.1C34.6,60.8,34.2,60.7,33.7,60.7"/>
	<path class="st0" d="M70.1,9.9c0.2,0,0.4,0.1,0.4,0.2s0.2,0.2,0.2,0.4l-0.1,27.3c0,0.2-0.1,0.4-0.2,0.5L42.3,59.9
		C42.1,60,42,60,41.9,60s-0.2,0-0.4-0.1L13.3,38.1c-0.1-0.1-0.2-0.3-0.2-0.5V10.4c0-0.3,0.3-0.6,0.6-0.6H70.1 M70.1,8.4H13.7
		c-1.1,0-2,0.9-2,2v27.2c0,0.6,0.3,1.2,0.8,1.6L40.7,61c0.4,0.3,0.8,0.4,1.2,0.4s0.9-0.1,1.2-0.4l28.1-21.7c0.5-0.4,0.8-1,0.8-1.6
		l0.1-27.3C72.1,9.3,71.2,8.4,70.1,8.4"/>
	<path class="st0" d="M41.8,1.7c0.1,0,0.2,0,0.3,0.1c0.3,0.2,0.3,0.5,0.2,0.7c0,0.2-0.2,0.4-0.6,0.4c-0.4,0-0.5-0.3-0.6-0.4
		c-0.1-0.2-0.1-0.4,0.2-0.7C41.5,1.7,41.7,1.7,41.8,1.7 M41.8,0.3c-0.4,0-0.9,0.1-1.2,0.4c-1.5,1.2-0.7,3.6,1.2,3.6
		c2,0,2.8-2.5,1.2-3.7C42.6,0.4,42.2,0.3,41.8,0.3"/>
	<path class="st0" d="M6.1,29.2c0.2,0,0.6,0.2,0.6,0.6v3l-2.1-1.6c-0.2-0.2-0.2-0.4-0.2-0.5c0-0.1,0-0.3,0.2-0.5l1.1-0.9
		C5.8,29.2,5.9,29.2,6.1,29.2 M6.1,27.8c-0.4,0-0.9,0.1-1.3,0.5l-1.1,0.9c-1,0.8-1,2.4,0,3.1l4.3,3.4l0-0.2v-5.7
		C8.1,28.6,7.1,27.8,6.1,27.8"/>
	<path class="st0" d="M77.9,29.2L77.9,29.2c0.1,0,0.3,0,0.4,0.1l1.1,0.9c0.2,0.2,0.2,0.4,0.2,0.5c0,0.1,0,0.3-0.2,0.5l-2.1,1.6v-3
		C77.3,29.4,77.7,29.2,77.9,29.2 M77.9,27.8c-1,0-2,0.8-2,2v5.7l0,0.2l4.3-3.4c1-0.8,1-2.3,0-3.1l-1.1-0.9
		C78.8,27.9,78.4,27.8,77.9,27.8"/>
</g>
</svg>
