<?xml version="1.0" encoding="utf-8"?>
<!-- Generator: Adobe Illustrator 23.0.2, SVG Export Plug-In . SVG Version: 6.00 Build 0)  -->
<svg version="1.1" id="Layer_1" xmlns="http://www.w3.org/2000/svg" xmlns:xlink="http://www.w3.org/1999/xlink" x="0px" y="0px"
	 viewBox="0 0 50 84" style="enable-background:new 0 0 50 84;" xml:space="preserve">
<style type="text/css">
	.st0{fill:#4F767B;}
	.st1{fill:#4E4E4E;}
</style>
<g>
	<path class="st0" d="M29.8,77.8c0,0.9-2.2,1.7-5,1.7c-2.8,0-5-0.7-5-1.7c0-0.9,2.2-1.7,5-1.7C27.6,76.2,29.8,76.9,29.8,77.8"/>
	<path class="st0" d="M33.4,25.4c0,4.6-3.8,8.4-8.6,8.4c-4.7,0-8.6-3.8-8.6-8.4c0-4.6,3.8-8.4,8.6-8.4C29.5,17,33.4,20.7,33.4,25.4"
		/>
	<path class="st1" d="M25,5.9c12.7,0,23,10.3,23,23c0,2.3-0.3,4.6-1,6.8l-1.8,4.1L29.4,70.3c-0.9,1.8-2.6,2.8-4.6,2.8
		c-2,0-3.7-1.1-4.6-2.8L4.6,39.5l-1.4-3.3C2.5,33.9,2,31.4,2,28.9C2,16.2,12.3,5.9,25,5.9 M25,4.5C11.5,4.5,0.6,15.4,0.6,28.9
		c0,2.8,0.5,5.4,1.3,7.9l1.4,3.4l15.6,30.7c1.2,2.4,3.6,3.6,5.9,3.6c2.3,0,4.6-1.2,5.9-3.6l15.7-30.6l1.8-4.2
		c0.7-2.3,1.1-4.7,1.1-7.2C49.4,15.4,38.5,4.5,25,4.5"/>
	<path class="st1" d="M24.8,17.6c4.3,0,7.7,3.5,7.7,7.7c0,4.3-3.5,7.7-7.7,7.7c-4.3,0-7.7-3.5-7.7-7.7C17,21.1,20.5,17.6,24.8,17.6
		 M24.8,16.2c-5.1,0-9.2,4.1-9.2,9.2c0,5.1,4.1,9.2,9.2,9.2c5.1,0,9.2-4.1,9.2-9.2C34,20.3,29.9,16.2,24.8,16.2"/>
</g>
</svg>
