<?xml version="1.0" encoding="utf-8"?>
<!-- Generator: Adobe Illustrator 23.0.2, SVG Export Plug-In . SVG Version: 6.00 Build 0)  -->
<svg version="1.1" id="Layer_1" xmlns="http://www.w3.org/2000/svg" xmlns:xlink="http://www.w3.org/1999/xlink" x="0px" y="0px"
	 viewBox="0 0 700 700" style="enable-background:new 0 0 700 700;" xml:space="preserve">
<style type="text/css">
	.st0{opacity:0.4;}
	.st1{clip-path:url(#SVGID_2_);fill:#E2E2E2;}
</style>
<g class="st0">
	<g>
		<defs>
			<rect id="SVGID_1_" x="14.7" y="5.1" width="670.6" height="689.9"/>
		</defs>
		<clipPath id="SVGID_2_">
			<use xlink:href="#SVGID_1_"  style="overflow:visible;"/>
		</clipPath>
		<path class="st1" d="M141.6,602c-2.8-21.6-22.6-36.8-44.1-34c-21.6,2.8-36.8,22.7-34,44.2c2.8,21.4,22.6,36.7,44.2,33.9
			C129.2,643.2,144.4,623.4,141.6,602 M243.7,331.8c-2.8-21.5-22.7-36.8-44.2-34c-21.5,2.8-36.8,22.7-34,44.2
			c2.8,21.5,22.7,36.8,44.2,34C231.3,373.2,246.6,353.4,243.7,331.8 M468.1,493.4c-2.8-21.5-22.7-36.8-44.2-34
			c-21.6,2.8-36.8,22.7-34,44.2c2.8,21.6,22.7,36.8,44.2,34C455.7,534.8,471,514.9,468.1,493.4 M636.5,87.8
			c-2.8-21.6-22.7-36.8-44.2-34c-21.6,2.8-36.8,22.7-34,44.2c2.8,21.5,22.7,36.8,44.2,33.9C624.1,129.2,639.3,109.4,636.5,87.8
			 M586,5.8c48-6.3,92.2,27.7,98.5,75.7c6.3,48-27.7,92.2-75.7,98.5c-4.6,0.6-9.1,0.7-13.7,0.6L492.6,438
			c12.4,13,21.1,29.9,23.6,49.1c6.3,48.1-27.7,92.2-75.7,98.5c-48,6.3-92.2-27.6-98.5-75.7c-2.3-17.4,0.7-34.2,7.8-49l-86.4-58.7
			c-12.7,11.5-29,19.5-47.3,21.9c-7.1,0.9-14,0.9-20.8,0.2l-41.7,111.4c19.2,13.7,32.9,34.9,36.2,60.1c6.3,48-27.7,92.2-75.7,98.5
			c-48,6.3-92.2-27.7-98.5-75.7c-6.3-48.1,27.7-92.3,75.7-98.6c5.6-0.7,11.2-0.8,16.7-0.5l42.4-113.5
			c-17.4-13.7-29.7-33.9-32.8-57.5c-6.3-48,27.7-92.2,75.7-98.5c48-6.3,92.2,27.7,98.5,75.7c1.6,12.3,0.5,24.3-2.6,35.6l93,63.2
			c10.5-6.6,22.4-11.2,35.5-12.9c11.2-1.5,22.2-0.6,32.6,1.9L548.8,166c-20.4-13.5-35.1-35.5-38.5-61.6C504,56.3,538,12.1,586,5.8"
			/>
	</g>
</g>
</svg>
