<?xml version="1.0" encoding="utf-8"?>
<!-- Generator: Adobe Illustrator 23.0.2, SVG Export Plug-In . SVG Version: 6.00 Build 0)  -->
<svg version="1.1" id="Layer_1" xmlns="http://www.w3.org/2000/svg" xmlns:xlink="http://www.w3.org/1999/xlink" x="0px" y="0px"
	 viewBox="0 0 1920 698" style="enable-background:new 0 0 1920 698;" xml:space="preserve">
<style type="text/css">
	.st0{filter:url(#Adobe_OpacityMaskFilter);}
	.st1{clip-path:url(#SVGID_2_);fill:url(#SVGID_4_);}
	.st2{clip-path:url(#SVGID_2_);mask:url(#SVGID_3_);fill:url(#SVGID_5_);}
	.st3{clip-path:url(#SVGID_7_);}
	.st4{filter:url(#Adobe_OpacityMaskFilter_1_);}
	.st5{clip-path:url(#SVGID_9_);fill:url(#SVGID_11_);}
	.st6{clip-path:url(#SVGID_9_);mask:url(#SVGID_10_);fill:url(#SVGID_12_);}
</style>
<g>
	<defs>
		<path id="SVGID_1_" d="M1092,452.7c-16,2.1-31.6,2-47,0.4L953.4,698h404.9l31.6,0c-6.9-16.1-11.7-33.5-14.1-51.7
			c-5.2-39.3,1.6-77.2,17.6-110.5l-194.7-132.4C1170.1,429.4,1133.4,447.3,1092,452.7 M0,0v698h698.5l31.7-0.3
			c23.6-15,50.7-25.1,80.1-29c12.6-1.7,25.2-1.8,37.7-1.1l95.6-256c-39.1-30.8-66.9-76.4-73.9-129.6
			c-14.2-108.3,62.4-208,170.7-222.2c108.3-14.2,208,62.4,222.2,170.7c3.6,27.8,1.2,54.8-5.9,80.2l209.7,142.6
			c23.7-14.9,50.6-25.2,80-29.1c25.2-3.3,50.1-1.4,73.5,4.2L1790.8,0H0z M1908.5,0l-193.1,484.1c28,29.3,47.6,67.4,53.2,110.7
			c4.8,36.3-0.7,71.7-14.1,103.2l165.4,0V0H1908.5z"/>
	</defs>
	<clipPath id="SVGID_2_">
		<use xlink:href="#SVGID_1_"  style="overflow:visible;"/>
	</clipPath>
	<defs>
		<filter id="Adobe_OpacityMaskFilter" filterUnits="userSpaceOnUse" x="0" y="0" width="1920" height="698">
			<feColorMatrix  type="matrix" values="1 0 0 0 0  0 1 0 0 0  0 0 1 0 0  0 0 0 1 0"/>
		</filter>
	</defs>
	<mask maskUnits="userSpaceOnUse" x="0" y="0" width="1920" height="698" id="SVGID_3_">
		<g class="st0">
			
				<linearGradient id="SVGID_4_" gradientUnits="userSpaceOnUse" x1="0.9995" y1="3030.2129" x2="1.9995" y2="3030.2129" gradientTransform="matrix(1922 0 0 -1922 -1923 5824418)">
				<stop  offset="0" style="stop-color:#FFFFFF"/>
				<stop  offset="0.4632" style="stop-color:#FFFFFF"/>
				<stop  offset="1" style="stop-color:#000000"/>
			</linearGradient>
			<rect y="0" class="st1" width="1920" height="698"/>
		</g>
	</mask>
	
		<linearGradient id="SVGID_5_" gradientUnits="userSpaceOnUse" x1="0.9995" y1="3030.2129" x2="1.9995" y2="3030.2129" gradientTransform="matrix(1922 0 0 -1922 -1923 5824418)">
		<stop  offset="0" style="stop-color:#2A2E37"/>
		<stop  offset="0.4632" style="stop-color:#2A2E37"/>
		<stop  offset="1" style="stop-color:#2A2E37"/>
	</linearGradient>
	<rect y="0" class="st2" width="1920" height="698"/>
</g>
<g>
	<g>
		<defs>
			<rect id="SVGID_6_" width="1922" height="698"/>
		</defs>
		<clipPath id="SVGID_7_">
			<use xlink:href="#SVGID_6_"  style="overflow:visible;"/>
		</clipPath>
		<g class="st3">
			<defs>
				<path id="SVGID_8_" d="M732.2,697.7c23.6-15,50.7-25.1,80.1-29c12.6-1.7,25.2-1.8,37.7-1.1l95.6-256
					c-39.1-30.8-66.9-76.4-73.9-129.6c-14.2-108.3,62.4-208,170.7-222.2c108.3-14.2,208,62.4,222.2,170.7
					c3.6,27.8,1.2,54.8-5.9,80.2l209.7,142.6c23.7-14.9,50.6-25.2,80-29.1c25.2-3.3,50.1-1.4,73.5,4.2L1792.8,0H0v698h700.5
					L732.2,697.7z M955.4,698l91.7-244.9c15.4,1.6,31,1.7,47-0.4c41.4-5.4,78-23.3,106.7-49.3l194.7,132.4
					c-16,33.3-22.7,71.2-17.6,110.5c2.4,18.2,7.2,35.5,14.1,51.7l-31.6,0H955.4z M1756.6,698c13.4-31.5,18.9-66.9,14.1-103.2
					c-5.7-43.3-25.2-81.4-53.2-110.7L1910.5,0h11.5v698L1756.6,698z"/>
			</defs>
			<clipPath id="SVGID_9_">
				<use xlink:href="#SVGID_8_"  style="overflow:visible;"/>
			</clipPath>
			<defs>
				<filter id="Adobe_OpacityMaskFilter_1_" filterUnits="userSpaceOnUse" x="0" y="0" width="1922" height="698">
					<feColorMatrix  type="matrix" values="1 0 0 0 0  0 1 0 0 0  0 0 1 0 0  0 0 0 1 0"/>
				</filter>
			</defs>
			<mask maskUnits="userSpaceOnUse" x="0" y="0" width="1922" height="698" id="SVGID_10_">
				<g class="st4">
					
						<linearGradient id="SVGID_11_" gradientUnits="userSpaceOnUse" x1="1.0005" y1="3030.2129" x2="2.0005" y2="3030.2129" gradientTransform="matrix(1922 0 0 -1922 -1923 5824418)">
						<stop  offset="0" style="stop-color:#FFFFFF"/>
						<stop  offset="1" style="stop-color:#000000"/>
					</linearGradient>
					<rect y="0" class="st5" width="1922" height="698"/>
				</g>
			</mask>
			
				<linearGradient id="SVGID_12_" gradientUnits="userSpaceOnUse" x1="1.0005" y1="3030.2129" x2="2.0005" y2="3030.2129" gradientTransform="matrix(1922 0 0 -1922 -1923 5824418)">
				<stop  offset="0" style="stop-color:#2A2E37"/>
				<stop  offset="1" style="stop-color:#2A2E37"/>
			</linearGradient>
			<rect y="0" class="st6" width="1922" height="698"/>
		</g>
	</g>
</g>
</svg>
