<?xml version="1.0" encoding="utf-8"?>
<!-- Generator: Adobe Illustrator 23.0.2, SVG Export Plug-In . SVG Version: 6.00 Build 0)  -->
<svg version="1.1" id="Layer_1" xmlns="http://www.w3.org/2000/svg" xmlns:xlink="http://www.w3.org/1999/xlink" x="0px" y="0px"
	 viewBox="0 0 2200 1000" style="enable-background:new 0 0 2200 1000;" xml:space="preserve">
<style type="text/css">
	.st0{fill:#4F767B;}
</style>
<g>
	
		<rect x="-34.9" y="78.6" transform="matrix(0.7071 -0.7071 0.7071 0.7071 -129.0408 151.0366)" class="st0" width="305.4" height="305.4"/>
	
		<rect x="454.4" y="78.6" transform="matrix(0.7071 -0.7071 0.7071 0.7071 14.2717 497.0245)" class="st0" width="305.4" height="305.4"/>
	<path class="st0" d="M360.7-176.8L527.6-9.9L360.7,157L193.9-9.9L360.7-176.8z M360.7-225.8L144.8-9.9L360.7,206L576.6-9.9
		L360.7-225.8z"/>
</g>
<g>
	
		<rect x="1589" y="843.6" transform="matrix(0.7071 -0.7071 0.7071 0.7071 -194.3521 1523.3931)" class="st0" width="305.4" height="305.4"/>
	
		<rect x="2078.3" y="843.6" transform="matrix(0.7071 -0.7071 0.7071 0.7071 -51.0396 1869.3809)" class="st0" width="305.4" height="305.4"/>
	<path class="st0" d="M1984.6,588.3l166.9,166.9L1984.6,922l-166.9-166.9L1984.6,588.3z M1984.6,539.2l-215.9,215.9l215.9,215.9
		l215.9-215.9L1984.6,539.2z"/>
</g>
</svg>
