<?xml version="1.0" encoding="utf-8"?>
<!-- Generator: Adobe Illustrator 23.0.2, SVG Export Plug-In . SVG Version: 6.00 Build 0)  -->
<svg version="1.1" id="Layer_1" xmlns="http://www.w3.org/2000/svg" xmlns:xlink="http://www.w3.org/1999/xlink" x="0px" y="0px"
	 viewBox="0 0 572.1 551.4" style="enable-background:new 0 0 572.1 551.4;" xml:space="preserve">
<style type="text/css">
	.st0{opacity:0.1;}
	.st1{clip-path:url(#SVGID_2_);fill:#FFFFFF;}
</style>
<g class="st0">
	<g>
		<defs>
			<rect id="SVGID_1_" x="29" y="11.2" width="514.1" height="528.9"/>
		</defs>
		<clipPath id="SVGID_2_">
			<use xlink:href="#SVGID_1_"  style="overflow:visible;"/>
		</clipPath>
		<path class="st1" d="M126.3,468.9c-2.2-16.5-17.3-28.2-33.8-26c-16.5,2.2-28.2,17.4-26,33.9c2.2,16.4,17.4,28.1,33.9,26
			C116.8,500.5,128.4,485.3,126.3,468.9 M204.6,261.7c-2.2-16.5-17.4-28.2-33.9-26c-16.5,2.2-28.2,17.4-26,33.9
			c2.2,16.5,17.4,28.2,33.9,26C195.1,293.5,206.8,278.3,204.6,261.7 M376.6,385.6c-2.2-16.5-17.4-28.2-33.9-26
			c-16.5,2.2-28.2,17.4-26,33.9c2.2,16.5,17.4,28.2,33.9,26C367.1,417.3,378.8,402.1,376.6,385.6 M505.7,74.7
			c-2.2-16.5-17.4-28.2-33.9-26c-16.5,2.2-28.2,17.4-26,33.9c2.2,16.5,17.4,28.2,33.9,26C496.2,106.4,507.9,91.2,505.7,74.7
			 M467,11.8c36.8-4.8,70.7,21.2,75.6,58c4.8,36.8-21.2,70.7-58,75.6c-3.5,0.5-7,0.6-10.5,0.5l-78.7,197.3
			c9.5,10,16.2,22.9,18.1,37.6c4.8,36.8-21.2,70.7-58,75.6c-36.8,4.8-70.7-21.2-75.5-58c-1.8-13.4,0.5-26.3,6-37.6l-66.2-45
			c-9.7,8.8-22.2,14.9-36.3,16.8c-5.4,0.7-10.8,0.7-16,0.1l-32,85.4c14.7,10.5,25.2,26.7,27.7,46.1c4.8,36.8-21.2,70.7-58,75.5
			c-36.8,4.8-70.7-21.2-75.6-58c-4.8-36.9,21.2-70.8,58-75.6c4.3-0.6,8.6-0.6,12.8-0.4l32.5-87c-13.3-10.5-22.8-26-25.1-44.1
			c-4.8-36.8,21.2-70.7,58-75.6c36.8-4.8,70.7,21.2,75.6,58c1.2,9.4,0.4,18.6-2,27.3l71.3,48.5c8.1-5.1,17.2-8.6,27.2-9.9
			c8.6-1.1,17-0.5,25,1.4l75.6-189.6c-15.6-10.4-26.9-27.2-29.5-47.3C404.2,50.5,430.2,16.6,467,11.8"/>
	</g>
</g>
</svg>
