<?xml version="1.0" encoding="utf-8"?>
<!-- Generator: Adobe Illustrator 23.0.2, SVG Export Plug-In . SVG Version: 6.00 Build 0)  -->
<svg version="1.1" id="Layer_1" xmlns="http://www.w3.org/2000/svg" xmlns:xlink="http://www.w3.org/1999/xlink" x="0px" y="0px"
	 viewBox="0 0 1921 235" style="enable-background:new 0 0 1921 235;" xml:space="preserve">
<style type="text/css">
	.st0{clip-path:url(#SVGID_2_);}
	.st1{clip-path:url(#SVGID_4_);fill:#CCCCCC;}
	.st2{clip-path:url(#SVGID_6_);fill:#CCCCCC;}
	.st3{clip-path:url(#SVGID_8_);fill:#CCCCCC;}
	.st4{clip-path:url(#SVGID_10_);}
	.st5{clip-path:url(#SVGID_12_);fill:#CCCCCC;}
	.st6{clip-path:url(#SVGID_14_);fill:#CCCCCC;}
	.st7{clip-path:url(#SVGID_16_);fill:#CCCCCC;}
</style>
<g>
	<g>
		<g>
			<defs>
				<rect id="SVGID_1_" x="-28.9" y="-4.3" width="337.5" height="242.8"/>
			</defs>
			<clipPath id="SVGID_2_">
				<use xlink:href="#SVGID_1_"  style="overflow:visible;"/>
			</clipPath>
			<g class="st0">
				<g>
					<defs>
						
							<rect id="SVGID_3_" x="-65.8" y="-65.7" transform="matrix(0.7071 -0.7071 0.7071 0.7071 -10.2714 77.0784)" width="307.5" height="233.3"/>
					</defs>
					<clipPath id="SVGID_4_">
						<use xlink:href="#SVGID_3_"  style="overflow:visible;"/>
					</clipPath>
					
						<rect x="-6.6" y="108.5" transform="matrix(0.7071 -0.7071 0.7071 0.7071 -100.9291 80.9477)" class="st1" width="107.7" height="107.7"/>
				</g>
				<g>
					<defs>
						
							<rect id="SVGID_5_" x="-15.3" y="56.3" transform="matrix(0.7071 -0.7071 0.7071 0.7071 -81.7373 148.544)" width="307.5" height="233.3"/>
					</defs>
					<clipPath id="SVGID_6_">
						<use xlink:href="#SVGID_5_"  style="overflow:visible;"/>
					</clipPath>
					
						<rect x="165.9" y="108.5" transform="matrix(0.7071 -0.7071 0.7071 0.7071 -50.4203 202.9369)" class="st2" width="107.7" height="107.7"/>
				</g>
				<g>
					<defs>
						<rect id="SVGID_7_" x="1" y="-4.3" width="307.5" height="233.3"/>
					</defs>
					<clipPath id="SVGID_8_">
						<use xlink:href="#SVGID_7_"  style="overflow:visible;"/>
					</clipPath>
					<path class="st3" d="M132.9,18.4l58.8,58.8L132.9,136L74,77.3L132.9,18.4z M132.9,1.1L56.7,77.3l76.1,76.1L209,77.3L132.9,1.1z
						"/>
				</g>
			</g>
		</g>
	</g>
</g>
<g>
	<g>
		<g>
			<defs>
				<rect id="SVGID_9_" x="1613.5" y="-4.3" width="337.5" height="242.8"/>
			</defs>
			<clipPath id="SVGID_10_">
				<use xlink:href="#SVGID_9_"  style="overflow:visible;"/>
			</clipPath>
			<g class="st4">
				<g>
					<defs>
						
							<rect id="SVGID_11_" x="1609.7" y="86.4" transform="matrix(0.7071 -0.7071 0.7071 0.7071 372.9044 1306.3903)" width="307.5" height="233.3"/>
					</defs>
					<clipPath id="SVGID_12_">
						<use xlink:href="#SVGID_11_"  style="overflow:visible;"/>
					</clipPath>
					
						<rect x="1821" y="108.5" transform="matrix(0.7071 -0.7071 0.7071 0.7071 434.3438 1373.2603)" class="st5" width="107.7" height="107.7"/>
				</g>
				<g>
					<defs>
						
							<rect id="SVGID_13_" x="1559.1" y="-35.6" transform="matrix(0.7071 -0.7071 0.7071 0.7071 444.3748 1234.9159)" width="307.5" height="233.3"/>
					</defs>
					<clipPath id="SVGID_14_">
						<use xlink:href="#SVGID_13_"  style="overflow:visible;"/>
					</clipPath>
					
						<rect x="1648.4" y="108.5" transform="matrix(0.7071 -0.7071 0.7071 0.7071 383.7688 1251.233)" class="st6" width="107.7" height="107.7"/>
				</g>
				<g>
					<defs>
						<rect id="SVGID_15_" x="1613.5" y="-4.3" width="307.5" height="233.3"/>
					</defs>
					<clipPath id="SVGID_16_">
						<use xlink:href="#SVGID_15_"  style="overflow:visible;"/>
					</clipPath>
					<path class="st7" d="M1789.1,18.4l58.8,58.8l-58.8,58.8l-58.8-58.8L1789.1,18.4z M1789.1,1.1L1713,77.3l76.1,76.1l76.1-76.1
						L1789.1,1.1z"/>
				</g>
			</g>
		</g>
	</g>
</g>
</svg>
