<?xml version="1.0" encoding="utf-8"?>
<!-- Generator: Adobe Illustrator 23.0.2, SVG Export Plug-In . SVG Version: 6.00 Build 0)  -->
<svg version="1.1" id="Layer_1" xmlns="http://www.w3.org/2000/svg" xmlns:xlink="http://www.w3.org/1999/xlink" x="0px" y="0px"
	 viewBox="0 0 1912 858" style="enable-background:new 0 0 1912 858;" xml:space="preserve">
<style type="text/css">
	.st0{opacity:0.7;}
	.st1{clip-path:url(#SVGID_2_);fill:#4F767B;}
	.st2{clip-path:url(#SVGID_2_);fill:#284746;}
</style>
<g class="st0">
	<g>
		<defs>
			<rect id="SVGID_1_" y="0" width="1912" height="856.7"/>
		</defs>
		<clipPath id="SVGID_2_">
			<use xlink:href="#SVGID_1_"  style="overflow:visible;"/>
		</clipPath>
		<polygon class="st1" points="387,588 622.2,823.2 689.1,823.2 924.3,588 655.6,319.4 		"/>
		<polygon class="st1" points="995.7,588 1230.9,823.2 1297.8,823.2 1533,588 1264.4,319.4 		"/>
		<path class="st1" d="M957.8,80.4L1165.4,288L957.8,495.6L750.3,288L957.8,80.4z M957.8,19.3L689.2,288l268.6,268.6L1226.5,288
			L957.8,19.3z"/>
		<polygon class="st2" points="387,588 622.2,823.2 689.1,823.2 924.3,588 655.6,319.4 		"/>
		<polygon class="st2" points="995.7,588 1230.9,823.2 1297.8,823.2 1533,588 1264.4,319.4 		"/>
		<path class="st2" d="M957.8,80.4L1165.4,288L957.8,495.6L750.3,288L957.8,80.4z M957.8,19.3L689.2,288l268.6,268.6L1226.5,288
			L957.8,19.3z"/>
	</g>
</g>
</svg>
