<?xml version="1.0" encoding="utf-8"?>
<!-- Generator: Adobe Illustrator 23.0.2, SVG Export Plug-In . SVG Version: 6.00 Build 0)  -->
<svg version="1.1" id="Layer_1" xmlns="http://www.w3.org/2000/svg" xmlns:xlink="http://www.w3.org/1999/xlink" x="0px" y="0px"
	 viewBox="0 0 120 134" style="enable-background:new 0 0 120 134;" xml:space="preserve">
<style type="text/css">
	.st0{fill:#FFFFFF;}
</style>
<g>
	<path class="st0" d="M100.3,95.9H35.3c-6.6,0-12-5.4-12-12s5.4-12,12-12h65.1c3.9,0,7.1,3.2,7.1,7.1v9.8
		C107.5,92.6,104.3,95.9,100.3,95.9z M35.3,76.4c-4.1,0-7.4,3.3-7.4,7.4s3.3,7.4,7.4,7.4h65.1c1.4,0,2.5-1.1,2.5-2.5v-9.8
		c0-1.4-1.1-2.5-2.5-2.5H35.3z"/>
</g>
<g>
	<path class="st0" d="M77.4,82.9c-1.3,0-2.3-1-2.3-2.3V74c0-6.3,5.1-11.5,11.5-11.5H93c1.3,0,2.3,1,2.3,2.3s-1,2.3-2.3,2.3h-6.5
		c-3.8,0-6.9,3.1-6.9,6.9v6.6C79.7,81.9,78.7,82.9,77.4,82.9z"/>
</g>
<g>
	<path class="st0" d="M110,133.2C110,133.2,110,133.2,110,133.2l-17,0c-1.3,0-2.3-1-2.3-2.3c0-13.2-3.6-22.1-6.6-27.3
		c-3.2-5.6-6.5-8.1-6.5-8.1c-1-0.8-1.2-2.2-0.5-3.2s2.2-1.2,3.2-0.5c0.6,0.4,14.2,10.9,14.9,36.8l12.4,0
		c-0.5-23.7-9.3-33.3-9.4-33.4c-0.9-0.9-0.8-2.4,0.1-3.3c0.9-0.9,2.4-0.8,3.2,0.1c0.4,0.5,10.7,11.5,10.7,38.9
		c0,0.6-0.2,1.2-0.7,1.6C111.2,132.9,110.7,133.2,110,133.2z"/>
</g>
<g>
	<path class="st0" d="M72,105c-0.9,0-1.7-0.5-2.1-1.4c-0.5-1.2,0-2.5,1.2-3c2.3-1,6.7-5.8,8.9-8.5c0.8-1,2.2-1.1,3.2-0.3
		c1,0.8,1.1,2.2,0.3,3.2c-0.7,0.8-6.5,8-10.6,9.8C72.6,105,72.3,105,72,105z"/>
</g>
<g>
	<path class="st0" d="M111,94.2h-6.7c-1.3,0-2.3-1-2.3-2.3s1-2.3,2.3-2.3h6.7c1.3,0,2.3-1,2.3-2.3v-1.1c0-1.3-1-2.3-2.3-2.3h-5.3
		c-1.3,0-2.3-1-2.3-2.3s1-2.3,2.3-2.3h5.3c3.8,0,6.9,3.1,6.9,6.9v1.1C117.9,91.1,114.8,94.2,111,94.2z"/>
</g>
<g>
	<path class="st0" d="M56.3,69.4c-0.3,0-0.5,0-0.8-0.1l-15.9-5.9c-0.6-0.2-1-0.6-1.3-1.1l-6.5-13.4c-0.3-0.6-0.3-1.2-0.1-1.8
		L48.4,2.8c0.2-0.6,0.6-1,1.2-1.3c0.6-0.3,1.2-0.3,1.8-0.1l36,13.5c0.6,0.2,1,0.6,1.3,1.2s0.3,1.2,0.1,1.8L72.1,62.1
		c-0.2,0.6-0.7,1.1-1.3,1.3l-13.7,5.8C56.9,69.4,56.6,69.4,56.3,69.4z M42.1,59.3l14.1,5.3l11.9-5.1l15.4-41.1L51.9,6.6L36.5,47.7
		L42.1,59.3z"/>
</g>
<g>
	<path class="st0" d="M70,63.6c-0.3,0-0.5,0-0.8-0.1l-36-13.5c-1.2-0.4-1.8-1.8-1.3-3c0.4-1.2,1.8-1.8,3-1.3l36,13.5
		c1.2,0.4,1.8,1.8,1.3,3C71.8,63,70.9,63.6,70,63.6z"/>
</g>
<g>
	<path class="st0" d="M35.3,76.4c-0.3,0-0.6-0.1-0.9-0.2c-1.2-0.5-1.8-1.8-1.3-3l5.2-12.9c0.5-1.2,1.8-1.8,3-1.3
		c1.2,0.5,1.8,1.8,1.3,3L37.4,75C37.1,75.9,36.2,76.4,35.3,76.4z"/>
</g>
<g>
	<path class="st0" d="M53.6,76.4c-0.3,0-0.6-0.1-0.9-0.2c-1.2-0.5-1.8-1.8-1.3-3l2.8-7c0.5-1.2,1.8-1.8,3-1.3c1.2,0.5,1.8,1.8,1.3,3
		l-2.8,7C55.4,75.9,54.5,76.4,53.6,76.4z"/>
</g>
<g>
	<path class="st0" d="M82.9,29.3c-0.3,0-0.5,0-0.8-0.1l-36-13.5c-1.2-0.4-1.8-1.8-1.3-3c0.4-1.2,1.8-1.8,3-1.3l36,13.5
		c1.2,0.4,1.8,1.8,1.3,3C84.7,28.7,83.9,29.3,82.9,29.3z"/>
</g>
<g>
	<path class="st0" d="M16.5,73.6c0,1.4-1.1,2.5-2.5,2.5c-1.4,0-2.5-1.1-2.5-2.5c0-1.4,1.1-2.5,2.5-2.5
		C15.4,71.1,16.5,72.3,16.5,73.6"/>
</g>
<g>
	<path class="st0" d="M6.5,71.1c0,1.4-1.1,2.5-2.5,2.5c-1.4,0-2.5-1.1-2.5-2.5c0-1.4,1.1-2.5,2.5-2.5C5.4,68.6,6.5,69.7,6.5,71.1"/>
</g>
<g>
	<path class="st0" d="M6.5,83.9c0,1.4-1.1,2.5-2.5,2.5c-1.4,0-2.5-1.1-2.5-2.5c0-1.4,1.1-2.5,2.5-2.5C5.4,81.4,6.5,82.5,6.5,83.9"/>
</g>
<g>
	<path class="st0" d="M6.5,96.7c0,1.4-1.1,2.5-2.5,2.5c-1.4,0-2.5-1.1-2.5-2.5c0-1.4,1.1-2.5,2.5-2.5C5.4,94.2,6.5,95.3,6.5,96.7"/>
</g>
<g>
	<path class="st0" d="M16.5,83.9c0,1.4-1.1,2.5-2.5,2.5c-1.4,0-2.5-1.1-2.5-2.5c0-1.4,1.1-2.5,2.5-2.5
		C15.4,81.4,16.5,82.5,16.5,83.9"/>
</g>
<g>
	<path class="st0" d="M16.5,94.1c0,1.4-1.1,2.5-2.5,2.5c-1.4,0-2.5-1.1-2.5-2.5c0-1.4,1.1-2.5,2.5-2.5
		C15.4,91.6,16.5,92.7,16.5,94.1"/>
</g>
</svg>
