<?xml version="1.0" encoding="utf-8"?>
<!-- Generator: Adobe Illustrator 23.0.2, SVG Export Plug-In . SVG Version: 6.00 Build 0)  -->
<svg version="1.1" id="Layer_1" xmlns="http://www.w3.org/2000/svg" xmlns:xlink="http://www.w3.org/1999/xlink" x="0px" y="0px"
	 viewBox="0 0 120 24" style="enable-background:new 0 0 120 24;" xml:space="preserve">
<style type="text/css">
	.st0{fill:#808285;}
</style>
<path class="st0" d="M57.9,22.1l-8.7-8.7c-0.3-0.3-0.5-0.7-0.5-1.2c0-0.5,0.2-0.9,0.5-1.2l8.7-8.7c0.3-0.3,0.7-0.5,1.2-0.5
	c0.5,0,0.9,0.2,1.2,0.5l1,1c0.3,0.3,0.5,0.7,0.5,1.2c0,0.5-0.2,0.9-0.5,1.2l-6.5,6.5l6.5,6.5c0.3,0.3,0.5,0.7,0.5,1.2
	c0,0.5-0.2,0.9-0.5,1.2l-1,1c-0.3,0.3-0.7,0.5-1.2,0.5C58.7,22.6,58.3,22.4,57.9,22.1L57.9,22.1z M110.7,12.1c0,0.5-0.2,0.9-0.5,1.2
	l-8.7,8.7c-0.3,0.3-0.7,0.5-1.2,0.5c-0.5,0-0.9-0.2-1.2-0.5l-1-1c-0.3-0.3-0.5-0.8-0.5-1.2c0-0.5,0.2-0.9,0.5-1.2l6.5-6.5l-6.5-6.5
	c-0.3-0.3-0.5-0.8-0.5-1.2c0-0.5,0.2-0.9,0.5-1.2l1-1c0.3-0.3,0.7-0.5,1.2-0.5s0.9,0.2,1.2,0.5l8.7,8.7
	C110.6,11.3,110.7,11.7,110.7,12.1L110.7,12.1z"/>
<g>
	<rect x="9" y="2.1" transform="matrix(0.7071 -0.7071 0.7071 0.7071 -6.4292 10.4749)" class="st0" width="0.9" height="21.8"/>
	
		<rect x="-1.4" y="12.6" transform="matrix(0.7071 -0.7071 0.7071 0.7071 -6.4328 10.4736)" class="st0" width="21.8" height="0.9"/>
</g>
</svg>
