<?xml version="1.0" encoding="utf-8"?>
<!-- Generator: Adobe Illustrator 23.0.2, SVG Export Plug-In . SVG Version: 6.00 Build 0)  -->
<svg version="1.1" id="Layer_1" xmlns="http://www.w3.org/2000/svg" xmlns:xlink="http://www.w3.org/1999/xlink" x="0px" y="0px"
	 viewBox="0 0 40 40" style="enable-background:new 0 0 40 40;" xml:space="preserve">
<style type="text/css">
	.st0{fill:#38636C;}
</style>
<g>
	<path class="st0" d="M24.4,18.5H9.6c-0.7,0-1.2-0.6-1.2-1.2S9,16,9.6,16h14.8c0.7,0,1.2,0.6,1.2,1.2S25.1,18.5,24.4,18.5"/>
	<path class="st0" d="M17,25.9c-0.7,0-1.2-0.6-1.2-1.2V9.9c0-0.7,0.6-1.2,1.2-1.2c0.7,0,1.2,0.6,1.2,1.2v14.8
		C18.3,25.3,17.7,25.9,17,25.9"/>
	<path class="st0" d="M17,32.9c-4.1,0-8.1-1.5-11.2-4.6c-6.2-6.2-6.2-16.2,0-22.4c6.2-6.2,16.2-6.2,22.4,0c6.2,6.2,6.2,16.2,0,22.4
		C25.2,31.4,21.1,32.9,17,32.9 M17,4.4c-3.2,0-6.5,1.2-8.9,3.7c-4.9,4.9-4.9,13,0,17.9c4.9,4.9,13,4.9,17.9,0c4.9-4.9,4.9-13,0-17.9
		C23.5,5.6,20.3,4.4,17,4.4"/>
	<path class="st0" d="M37.2,38.8c-0.4,0-0.8-0.2-1.1-0.5L26,28.3c-0.6-0.6-0.6-1.6,0-2.3c0.6-0.6,1.6-0.6,2.3,0l10.1,10.1
		c0.6,0.6,0.6,1.6,0,2.3C38,38.7,37.6,38.8,37.2,38.8"/>
</g>
</svg>
