<?xml version="1.0" encoding="utf-8"?>
<!-- Generator: Adobe Illustrator 23.0.2, SVG Export Plug-In . SVG Version: 6.00 Build 0)  -->
<svg version="1.1" id="Layer_1" xmlns="http://www.w3.org/2000/svg" xmlns:xlink="http://www.w3.org/1999/xlink" x="0px" y="0px"
	 viewBox="0 0 40.9 59.6" style="enable-background:new 0 0 40.9 59.6;" xml:space="preserve">
<style type="text/css">
	.st0{fill:#4F767B;}
	.st1{fill:#4F767B;stroke:#FFFFFF;stroke-width:2;stroke-miterlimit:10;}
</style>
<g>
	<path class="st0" d="M23.9,55.7c0,0.7-1.6,1.2-3.6,1.2s-3.6-0.5-3.6-1.2c0-0.7,1.6-1.2,3.6-1.2C22.3,54.5,23.9,55,23.9,55.7"/>
	<g>
		<path class="st1" d="M20.5,3.7C11.3,3.7,4,11.2,4,20.3c0,1.8,0.4,3.6,0.9,5.3l1,2.4L17,50.3c0.6,1.2,1.9,2,3.3,2s2.7-0.7,3.3-2
			l11.3-22l1.3-3c0.5-1.6,0.7-3.3,0.7-4.9C37,11.2,29.6,3.7,20.5,3.7z M20.3,24.5c-3.7,0-6.6-3-6.6-6.6c0-3.7,2.9-6.6,6.6-6.6
			c3.7,0,6.6,3,6.6,6.6C26.9,21.5,24,24.5,20.3,24.5z"/>
	</g>
</g>
</svg>
