<?xml version="1.0" encoding="utf-8"?>
<!-- Generator: Adobe Illustrator 23.0.2, SVG Export Plug-In . SVG Version: 6.00 Build 0)  -->
<svg version="1.1" id="Layer_1" xmlns="http://www.w3.org/2000/svg" xmlns:xlink="http://www.w3.org/1999/xlink" x="0px" y="0px"
	 viewBox="0 0 44 44" style="enable-background:new 0 0 44 44;" xml:space="preserve">
<style type="text/css">
	.st0{fill:#FFFFFF;}
	.st1{fill:#38636C;}
</style>
<g>
	<g>
		<path class="st0" d="M43.5,22c0,11.9-9.6,21.5-21.5,21.5C10.1,43.5,0.5,33.9,0.5,22C0.5,10.1,10.1,0.5,22,0.5
			C33.9,0.5,43.5,10.1,43.5,22"/>
	</g>
	<g>
		<path class="st1" d="M17.6,32.6c-0.6,0-1.1-0.2-1.5-0.7c-0.7-0.8-0.6-2.1,0.2-2.8l7.9-6.7l-7.9-6.7c-0.8-0.7-0.9-1.9-0.2-2.8
			c0.7-0.8,1.9-0.9,2.8-0.2l11.5,9.7l-11.5,9.7C18.5,32.5,18,32.6,17.6,32.6z"/>
	</g>
</g>
</svg>
