<?xml version="1.0" encoding="utf-8"?>
<!-- Generator: Adobe Illustrator 23.0.2, SVG Export Plug-In . SVG Version: 6.00 Build 0)  -->
<svg version="1.1" id="Layer_1" xmlns="http://www.w3.org/2000/svg" xmlns:xlink="http://www.w3.org/1999/xlink" x="0px" y="0px"
	 viewBox="0 0 62 62" style="enable-background:new 0 0 62 62;" xml:space="preserve">
<style type="text/css">
	.st0{fill:#38636C;}
	.st1{fill:#FFFFFF;}
</style>
<g>
	<rect x="1.5" y="1.5" class="st0" width="59" height="59"/>
	<path class="st1" d="M29.7,26.2c0,6.9-5.6,14.9-12.3,18.2l-1.7-2.3c3.6-2.6,6.6-6.8,7.3-10.9c-3.6,0-6.3-3.2-6.3-6.4
		c0-3.6,3-6.5,6.5-6.5C26.6,18.4,29.7,21.3,29.7,26.2 M46.5,26.2c0,6.9-5.6,14.9-12.3,18.2l-1.6-2.3c3.6-2.6,6.6-6.8,7.3-10.9
		c-3.6,0-6.3-3.2-6.3-6.4c0-3.6,3-6.5,6.5-6.5C43.5,18.4,46.5,21.3,46.5,26.2"/>
</g>
</svg>
