<?xml version="1.0" encoding="utf-8"?>
<!-- Generator: Adobe Illustrator 23.0.2, SVG Export Plug-In . SVG Version: 6.00 Build 0)  -->
<svg version="1.1" id="Layer_1" xmlns="http://www.w3.org/2000/svg" xmlns:xlink="http://www.w3.org/1999/xlink" x="0px" y="0px"
	 viewBox="0 0 375 375" style="enable-background:new 0 0 375 375;" xml:space="preserve">
<style type="text/css">
	.st0{fill:#333333;}
	.st1{fill:#FFFFFF;}
	.st2{fill:#E68048;}
</style>
<rect x="-8.2" y="-6.6" class="st0" width="392.2" height="392.2"/>
<g>
	<path class="st1" d="M110.3,191.7c0-1.3-0.2-2.5-0.7-3.6c-0.4-1.1-1.1-2-1.8-2.8c-0.8-0.8-1.7-1.4-2.8-1.9
		c-1.1-0.5-2.3-0.7-3.7-0.7s-2.6,0.2-3.7,0.7c-1.1,0.5-2.1,1.1-2.8,1.9c-0.8,0.8-1.4,1.7-1.8,2.8c-0.4,1.1-0.7,2.3-0.7,3.6
		c0,1.3,0.2,2.5,0.7,3.6c0.4,1.1,1.1,2,1.8,2.8c0.8,0.8,1.7,1.4,2.8,1.8c1.1,0.4,2.3,0.7,3.7,0.7s2.6-0.2,3.7-0.7
		c1.1-0.4,2.1-1.1,2.8-1.8c0.8-0.8,1.4-1.7,1.8-2.8C110,194.2,110.3,193,110.3,191.7 M110.3,198.1L110.3,198.1
		c-0.9,1.6-2.1,2.9-3.7,3.9c-1.6,0.9-3.5,1.4-5.7,1.4c-1.6,0-3.1-0.3-4.5-0.8c-1.4-0.5-2.6-1.3-3.7-2.3c-1.1-1-1.9-2.2-2.5-3.7
		c-0.6-1.5-0.9-3.1-0.9-4.9c0-1.7,0.3-3.3,0.9-4.7c0.6-1.5,1.4-2.7,2.5-3.7c1.1-1,2.3-1.9,3.8-2.5c1.5-0.6,3.1-0.9,4.9-0.9
		c1.8,0,3.4,0.3,4.9,0.9c1.5,0.6,2.8,1.4,3.8,2.4c1.1,1,1.9,2.3,2.5,3.8c0.6,1.5,0.9,3.1,0.9,4.9v9.2c0,2.2-0.3,4-0.9,5.5
		c-0.6,1.5-1.5,2.8-2.5,3.7c-1.1,1-2.3,1.7-3.8,2.1c-1.5,0.4-3,0.7-4.7,0.7c-2.7,0-5.1-0.6-7.1-1.7c-2-1.2-3.4-3-4.2-5.5h3.1
		c0.6,1.6,1.6,2.8,3.1,3.5c1.5,0.7,3.2,1.1,5.1,1.1c1.3,0,2.5-0.2,3.6-0.5c1.1-0.3,2-0.9,2.8-1.6c0.8-0.7,1.4-1.7,1.8-2.9
		c0.4-1.2,0.7-2.6,0.7-4.2V198.1z"/>
	<path class="st1" d="M133.6,189.8v-0.3c0-2.4-0.6-4.1-1.8-5.2c-1.2-1.1-2.7-1.6-4.6-1.6c-1.9,0-3.5,0.5-4.7,1.6
		c-1.2,1.1-1.7,2.8-1.7,5.2v13.4h-3v-13.4c0-1.6,0.2-3,0.7-4.2c0.5-1.2,1.1-2.2,1.9-3c0.8-0.8,1.8-1.4,3-1.8
		c1.2-0.4,2.4-0.6,3.8-0.6c1.4,0,2.7,0.2,3.8,0.6c1.1,0.4,2.1,1,3,1.8c0.8,0.8,1.5,1.8,1.9,3c0.5,1.2,0.7,2.6,0.7,4.2v0.3H133.6z"/>
	<path class="st1" d="M150.8,200.7c1.3,0,2.5-0.2,3.7-0.7c1.1-0.5,2-1.1,2.8-1.9c0.8-0.8,1.4-1.7,1.8-2.8c0.4-1.1,0.7-2.3,0.7-3.6
		c0-1.3-0.2-2.5-0.7-3.6c-0.4-1.1-1.1-2-1.8-2.8c-0.8-0.8-1.7-1.4-2.8-1.9c-1.1-0.5-2.3-0.7-3.7-0.7c-1.3,0-2.5,0.2-3.7,0.7
		c-1.1,0.5-2.1,1.1-2.8,1.9c-0.8,0.8-1.4,1.7-1.8,2.8c-0.4,1.1-0.7,2.3-0.7,3.6c0,1.3,0.2,2.5,0.7,3.6c0.4,1.1,1.1,2,1.8,2.8
		c0.8,0.8,1.7,1.4,2.8,1.9C148.2,200.5,149.4,200.7,150.8,200.7 M162.9,191.7c0,1.7-0.3,3.3-0.9,4.7c-0.6,1.5-1.4,2.7-2.5,3.7
		c-1.1,1-2.4,1.9-3.8,2.5c-1.5,0.6-3.1,0.9-4.9,0.9c-1.8,0-3.4-0.3-4.9-0.9c-1.5-0.6-2.7-1.4-3.8-2.5c-1.1-1-1.9-2.3-2.5-3.7
		c-0.6-1.5-0.9-3-0.9-4.7c0-1.7,0.3-3.3,0.9-4.7c0.6-1.5,1.4-2.7,2.5-3.7c1.1-1,2.3-1.9,3.8-2.5c1.5-0.6,3.1-0.9,4.9-0.9
		c1.8,0,3.4,0.3,4.9,0.9c1.5,0.6,2.8,1.4,3.8,2.5c1.1,1,1.9,2.3,2.5,3.7C162.6,188.4,162.9,190,162.9,191.7"/>
	<path class="st1" d="M185.1,180.5v13.1c0,2.4,0.6,4.1,1.8,5.3c1.2,1.2,2.7,1.8,4.5,1.8c1.8,0,3.3-0.6,4.5-1.7s1.8-2.9,1.8-5.3
		v-13.1h3v13.1c0,1.7-0.2,3.1-0.7,4.4c-0.5,1.2-1.1,2.3-1.9,3.1c-0.8,0.8-1.8,1.4-2.9,1.8c-1.1,0.4-2.3,0.6-3.6,0.6
		c-1.8,0-3.4-0.4-4.8-1.2c-1.4-0.8-2.5-2.1-3.2-3.7h-0.1c-0.7,1.6-1.7,2.9-3.2,3.7c-1.4,0.8-3,1.2-4.9,1.2c-1.3,0-2.5-0.2-3.6-0.6
		c-1.1-0.4-2.1-1-2.9-1.8c-0.8-0.8-1.5-1.8-1.9-3.1c-0.5-1.2-0.7-2.7-0.7-4.4v-13.1h3v13.1c0,2.4,0.6,4.2,1.8,5.3
		c1.2,1.2,2.7,1.7,4.5,1.7c1.8,0,3.3-0.6,4.5-1.8c1.2-1.2,1.8-3,1.8-5.3v-13.1H185.1z"/>
	<path class="st1" d="M222.7,194.7c0,1.5-0.2,2.8-0.6,3.9c-0.4,1.1-1,2-1.8,2.8c-0.8,0.7-1.7,1.3-2.7,1.7c-1.1,0.4-2.2,0.5-3.5,0.5
		c-1.3,0-2.5-0.2-3.6-0.5c-1.1-0.4-2-0.9-2.8-1.7c-0.8-0.7-1.4-1.7-1.8-2.8c-0.4-1.1-0.6-2.4-0.6-3.9v-22.1h3v7.9h13.2v2.8h-13.2
		v11.4c0,2.1,0.5,3.6,1.6,4.6c1,1,2.4,1.5,4.2,1.5c1.7,0,3.1-0.5,4.2-1.5c1.1-1,1.6-2.5,1.6-4.6v-0.5h3V194.7z"/>
	<path class="st1" d="M238.3,182.7c-2.4,0-4.4,0.7-5.8,2.2c-1.5,1.5-2.2,3.6-2.2,6.3v11.7h-3v-32.2h3v14h0.1
		c0.8-1.5,1.9-2.7,3.3-3.5c1.4-0.8,3.1-1.2,5.1-1.2c1.5,0,2.9,0.2,4.2,0.7c1.3,0.5,2.4,1.2,3.4,2.1c1,0.9,1.7,2.1,2.2,3.5
		c0.5,1.4,0.8,3.1,0.8,5v11.7h-3v-11.7c0-2.8-0.7-4.9-2.2-6.3C242.7,183.4,240.8,182.7,238.3,182.7"/>
	<rect x="254.6" y="170.7" class="st1" width="5.4" height="32.2"/>
	<path class="st1" d="M276.4,198.5c2,0,3.6-0.6,4.8-1.9c1.2-1.3,1.8-2.9,1.8-4.9c0-2-0.6-3.6-1.8-4.9c-1.2-1.3-2.8-1.9-4.8-1.9
		c-2,0-3.6,0.6-4.8,1.9c-1.2,1.3-1.8,2.9-1.8,4.9c0,2,0.6,3.6,1.8,4.9C272.8,197.8,274.4,198.5,276.4,198.5 M288.4,202.9h-4.9v-4.2
		h-0.1c-0.6,1.5-1.6,2.6-3,3.5c-1.4,0.9-3,1.3-4.9,1.3c-1.3,0-2.7-0.2-4-0.7c-1.3-0.5-2.5-1.2-3.6-2.2c-1-1-1.9-2.2-2.5-3.7
		c-0.7-1.5-1-3.2-1-5.2c0-1.7,0.3-3.3,0.9-4.7c0.6-1.5,1.4-2.7,2.5-3.7c1.1-1,2.3-1.9,3.8-2.5c1.5-0.6,3.1-0.9,4.9-0.9
		c1.8,0,3.4,0.3,4.9,0.9c1.5,0.6,2.7,1.4,3.8,2.4c1,1,1.9,2.3,2.5,3.8c0.6,1.5,0.9,3.1,0.9,4.9V202.9z"/>
	<path class="st1" d="M304.9,198.5c2,0,3.6-0.6,4.8-1.9s1.8-2.9,1.8-4.9s-0.6-3.6-1.8-4.9c-1.2-1.3-2.8-1.9-4.8-1.9
		c-2,0-3.6,0.6-4.8,1.9c-1.2,1.3-1.8,2.9-1.8,4.9s0.6,3.6,1.8,4.9C301.3,197.8,302.9,198.5,304.9,198.5 M292.9,170.7h5.4v12.9h0.1
		c0.7-1.1,1.7-2.1,3-2.7c1.3-0.7,2.8-1,4.5-1c1.3,0,2.7,0.2,4,0.7c1.3,0.5,2.5,1.2,3.6,2.2c1,1,1.9,2.2,2.5,3.7c0.7,1.5,1,3.2,1,5.2
		c0,1.7-0.3,3.3-0.9,4.7c-0.6,1.5-1.4,2.7-2.5,3.7c-1.1,1-2.4,1.9-3.8,2.5s-3.1,0.9-4.9,0.9c-1.8,0-3.4-0.3-4.9-0.8
		c-1.5-0.6-2.7-1.4-3.8-2.4c-1-1-1.9-2.3-2.5-3.8c-0.6-1.5-0.9-3.1-0.9-4.9V170.7z"/>
	<path class="st1" d="M332.6,186.9c-0.1-0.7-0.4-1.3-1-1.7c-0.6-0.4-1.4-0.6-2.5-0.6c-1.2,0-2.1,0.2-2.7,0.7
		c-0.6,0.5-0.9,1.1-0.9,1.9c0,0.7,0.3,1.1,1,1.4c0.6,0.3,1.4,0.5,2.4,0.6c1,0.2,2,0.3,3.1,0.5c1.1,0.2,2.1,0.5,3.1,0.9
		c1,0.5,1.8,1.1,2.4,2c0.6,0.8,1,2,1,3.6c0,1.1-0.2,2-0.7,3c-0.4,0.9-1.1,1.7-1.9,2.3c-0.8,0.7-1.8,1.2-3,1.5
		c-1.2,0.4-2.5,0.5-3.9,0.5s-2.7-0.2-3.9-0.5c-1.2-0.4-2.1-0.9-3-1.5c-0.8-0.6-1.5-1.4-1.9-2.3c-0.5-0.9-0.7-1.8-0.7-2.9h5.4
		c0,0.8,0.4,1.4,1,1.8c0.7,0.5,1.6,0.7,2.9,0.7c1.5,0,2.5-0.2,3.1-0.7c0.6-0.5,0.9-1.1,0.9-1.9c0-0.7-0.3-1.1-1-1.4
		c-0.6-0.3-1.4-0.5-2.4-0.6c-1-0.1-2-0.3-3.1-0.4c-1.1-0.2-2.1-0.4-3.1-0.9c-1-0.4-1.8-1.1-2.4-2c-0.6-0.9-1-2.1-1-3.7
		c0-1.1,0.2-2,0.6-2.9c0.4-0.9,1-1.7,1.8-2.3c0.8-0.6,1.7-1.2,2.8-1.5c1.1-0.4,2.3-0.5,3.7-0.5c1.4,0,2.6,0.2,3.7,0.5
		c1.1,0.4,2,0.9,2.8,1.5c0.8,0.6,1.4,1.4,1.8,2.2c0.4,0.8,0.6,1.8,0.7,2.8H332.6z"/>
	<path class="st2" d="M47.2,208.7c-0.2-1.8-1.9-3.1-3.7-2.9c-1.8,0.2-3.1,1.9-2.9,3.7c0.2,1.8,1.9,3.1,3.7,2.8
		C46.2,212.2,47.5,210.5,47.2,208.7 M55.8,186c-0.2-1.8-1.9-3.1-3.7-2.9c-1.8,0.2-3.1,1.9-2.9,3.7c0.2,1.8,1.9,3.1,3.7,2.9
		C54.8,189.5,56.1,187.8,55.8,186 M74.7,199.6c-0.2-1.8-1.9-3.1-3.7-2.9c-1.8,0.2-3.1,1.9-2.9,3.7c0.2,1.8,1.9,3.1,3.7,2.9
		C73.7,203,74.9,201.4,74.7,199.6 M88.9,165.4c-0.2-1.8-1.9-3.1-3.7-2.9c-1.8,0.2-3.1,1.9-2.9,3.7c0.2,1.8,1.9,3.1,3.7,2.9
		C87.8,168.9,89.1,167.3,88.9,165.4 M84.6,158.5c4-0.5,7.8,2.3,8.3,6.4c0.5,4-2.3,7.8-6.4,8.3c-0.4,0-0.8,0.1-1.2,0.1l-8.6,21.7
		c1,1.1,1.8,2.5,2,4.1c0.5,4-2.3,7.8-6.4,8.3c-4,0.5-7.8-2.3-8.3-6.4c-0.2-1.5,0.1-2.9,0.7-4.1l-7.3-4.9c-1.1,1-2.4,1.6-4,1.8
		c-0.6,0.1-1.2,0.1-1.8,0l-3.5,9.4c1.6,1.2,2.8,2.9,3,5.1c0.5,4-2.3,7.8-6.4,8.3c-4,0.5-7.8-2.3-8.3-6.4c-0.5-4.1,2.3-7.8,6.4-8.3
		c0.5-0.1,0.9-0.1,1.4,0l3.6-9.6c-1.5-1.1-2.5-2.9-2.8-4.8c-0.5-4,2.3-7.8,6.4-8.3c4-0.5,7.8,2.3,8.3,6.4c0.1,1,0,2-0.2,3l7.8,5.3
		c0.9-0.6,1.9-0.9,3-1.1c0.9-0.1,1.9-0.1,2.7,0.2l8.3-20.8c-1.7-1.1-3-3-3.2-5.2C77.7,162.8,80.6,159.1,84.6,158.5"/>
</g>
</svg>
